<svg width="39" height="40" viewBox="0 0 39 40" fill="none" xmlns="http://www.w3.org/2000/svg">
<path d="M14.8201 1.28C13.8123 1.28 12.9525 1.93852 12.6263 2.84H8.75069C8.67123 2.81909 8.58896 2.81086 8.50694 2.81562C8.48217 2.82254 8.45777 2.83067 8.43381 2.84H3.90006C2.61698 2.84 1.56006 3.89692 1.56006 5.18V32.48C1.56006 33.7631 2.61698 34.82 3.90006 34.82H17.9401C17.9401 36.1031 18.997 37.16 20.2801 37.16H34.3201C35.6031 37.16 36.6601 36.1031 36.6601 34.82V16.88C36.6601 15.5969 35.6031 14.54 34.3201 14.54H28.0801V5.18C28.0801 3.89692 27.0231 2.84 25.7401 2.84H17.0138C16.6876 1.93852 15.8278 1.28 14.8201 1.28ZM14.8201 2.84C15.2092 2.84 15.509 3.10789 15.5757 3.47375C15.5573 3.57038 15.5573 3.66962 15.5757 3.76625C15.509 4.13211 15.2092 4.4 14.8201 4.4C14.4048 4.4 14.0755 4.09699 14.0401 3.69312C14.0412 3.66876 14.0412 3.64436 14.0401 3.62C14.0401 3.17998 14.38 2.84 14.8201 2.84ZM3.90006 4.4H7.80006V6.74C7.80006 8.02307 8.85698 9.08 10.1401 9.08H19.5001C20.7831 9.08 21.8401 8.02307 21.8401 6.74V4.4H25.7401C26.1808 4.4 26.5201 4.73927 26.5201 5.18V14.54H20.2801C18.997 14.54 17.9401 15.5969 17.9401 16.88V33.26H3.90006C3.45934 33.26 3.12006 32.9207 3.12006 32.48V5.18C3.12006 4.73927 3.45934 4.4 3.90006 4.4ZM9.36006 4.4H12.6263C12.9525 5.30148 13.8123 5.96 14.8201 5.96C15.8278 5.96 16.6876 5.30148 17.0138 4.4H20.2801V6.74C20.2801 7.18072 19.9408 7.52 19.5001 7.52H10.1401C9.69934 7.52 9.36006 7.18072 9.36006 6.74V4.4ZM10.1401 12.2V16.88H8.58006V14.54H7.02006V16.88H5.46006V18.44H16.3801V16.88H14.8201V13.76H13.2601V16.88H11.7001V12.2H10.1401ZM20.2801 16.1H27.1538H27.4707H34.3201C34.7608 16.1 35.1001 16.4393 35.1001 16.88V34.82C35.1001 35.2607 34.7608 35.6 34.3201 35.6H20.2801C19.8393 35.6 19.5001 35.2607 19.5001 34.82V34.1862C19.5217 34.0817 19.5217 33.9739 19.5001 33.8694V16.88C19.5001 16.4393 19.8393 16.1 20.2801 16.1ZM21.6938 17.66C21.5132 17.6945 21.3505 17.7916 21.2346 17.9343C21.1186 18.0771 21.0568 18.2561 21.0601 18.44V21.56C21.0601 21.7669 21.1423 21.9652 21.2885 22.1115C21.4348 22.2578 21.6332 22.34 21.8401 22.34H32.7601C32.9669 22.34 33.1653 22.2578 33.3116 22.1115C33.4579 21.9652 33.54 21.7669 33.5401 21.56V18.44C33.54 18.2331 33.4579 18.0347 33.3116 17.8885C33.1653 17.7422 32.9669 17.66 32.7601 17.66H21.8401C21.8157 17.6589 21.7913 17.6589 21.7669 17.66C21.7426 17.6589 21.7182 17.6589 21.6938 17.66ZM22.6201 19.22H31.9801V20.78H22.6201V19.22ZM10.1401 21.56C7.56461 21.56 5.46006 23.6645 5.46006 26.24C5.46006 28.8154 7.56461 30.92 10.1401 30.92C12.7155 30.92 14.8201 28.8154 14.8201 26.24C14.8201 23.6645 12.7155 21.56 10.1401 21.56ZM10.1401 23.12V26.24H13.2601C13.2601 27.9724 11.8724 29.36 10.1401 29.36C8.40769 29.36 7.02006 27.9724 7.02006 26.24C7.02006 24.5076 8.40769 23.12 10.1401 23.12ZM21.8401 23.9C21.4095 23.9 21.0601 24.2494 21.0601 24.68V25.46C21.0601 25.8906 21.4095 26.24 21.8401 26.24H23.4001C23.8306 26.24 24.1801 25.8906 24.1801 25.46V24.68C24.1801 24.2494 23.8306 23.9 23.4001 23.9H21.8401ZM26.5201 23.9C26.0895 23.9 25.7401 24.2494 25.7401 24.68V25.46C25.7401 25.8906 26.0895 26.24 26.5201 26.24H28.0801C28.5106 26.24 28.8601 25.8906 28.8601 25.46V24.68C28.8601 24.2494 28.5106 23.9 28.0801 23.9H26.5201ZM31.2001 23.9C30.7695 23.9 30.4201 24.2494 30.4201 24.68V25.46C30.4201 25.8906 30.7695 26.24 31.2001 26.24H32.7601C33.1906 26.24 33.5401 25.8906 33.5401 25.46V24.68C33.5401 24.2494 33.1906 23.9 32.7601 23.9H31.2001ZM21.8401 27.8C21.4095 27.8 21.0601 28.1494 21.0601 28.58V29.36C21.0601 29.7906 21.4095 30.14 21.8401 30.14H23.4001C23.8306 30.14 24.1801 29.7906 24.1801 29.36V28.58C24.1801 28.1494 23.8306 27.8 23.4001 27.8H21.8401ZM26.5201 27.8C26.0895 27.8 25.7401 28.1494 25.7401 28.58V29.36C25.7401 29.7906 26.0895 30.14 26.5201 30.14H28.0801C28.5106 30.14 28.8601 29.7906 28.8601 29.36V28.58C28.8601 28.1494 28.5106 27.8 28.0801 27.8H26.5201ZM31.2001 27.8C30.7695 27.8 30.4201 28.1494 30.4201 28.58V29.36C30.4201 29.7906 30.7695 30.14 31.2001 30.14H32.7601C33.1906 30.14 33.5401 29.7906 33.5401 29.36V28.58C33.5401 28.1494 33.1906 27.8 32.7601 27.8H31.2001ZM21.8401 31.7C21.4095 31.7 21.0601 32.0494 21.0601 32.48V33.26C21.0601 33.6906 21.4095 34.04 21.8401 34.04H23.4001C23.8306 34.04 24.1801 33.6906 24.1801 33.26V32.48C24.1801 32.0494 23.8306 31.7 23.4001 31.7H21.8401ZM26.5201 31.7C26.0895 31.7 25.7401 32.0494 25.7401 32.48V33.26C25.7401 33.6906 26.0895 34.04 26.5201 34.04H28.0801C28.5106 34.04 28.8601 33.6906 28.8601 33.26V32.48C28.8601 32.0494 28.5106 31.7 28.0801 31.7H26.5201ZM31.2001 31.7C30.7695 31.7 30.4201 32.0494 30.4201 32.48V33.26C30.4201 33.6906 30.7695 34.04 31.2001 34.04H32.7601C33.1906 34.04 33.5401 33.6906 33.5401 33.26V32.48C33.5401 32.0494 33.1906 31.7 32.7601 31.7H31.2001Z" fill="#BFBFBF"/>
</svg>
