<svg width="34" height="35" viewBox="0 0 34 35" fill="none" xmlns="http://www.w3.org/2000/svg">
<path d="M26.9166 1.91669H7.08329C5.5804 1.91669 4.13906 2.51371 3.07635 3.57642C2.01365 4.63912 1.41663 6.08046 1.41663 7.58335V17.5C1.41663 17.8757 1.56588 18.2361 1.83156 18.5018C2.09723 18.7674 2.45757 18.9167 2.83329 18.9167H9.91663V31.6667C9.91596 31.9376 9.99301 32.2031 10.1386 32.4316C10.2843 32.6601 10.4924 32.842 10.7383 32.9559C10.9848 33.0693 11.2587 33.1096 11.5274 33.0719C11.7961 33.0343 12.0483 32.9202 12.2541 32.7434L16.2916 29.2867L20.3291 32.7434C20.5857 32.9628 20.9123 33.0834 21.25 33.0834C21.5876 33.0834 21.9142 32.9628 22.1708 32.7434L26.2083 29.2867L30.2458 32.7434C30.5024 32.9628 30.829 33.0834 31.1666 33.0834C31.3716 33.0819 31.5741 33.0385 31.7616 32.9559C32.0075 32.842 32.2156 32.6601 32.3613 32.4316C32.5069 32.2031 32.584 31.9376 32.5833 31.6667V7.58335C32.5833 6.08046 31.9863 4.63912 30.9236 3.57642C29.8609 2.51371 28.4195 1.91669 26.9166 1.91669ZM4.24996 16.0834V7.58335C4.24996 6.83191 4.54847 6.11124 5.07982 5.57988C5.61118 5.04853 6.33185 4.75002 7.08329 4.75002C7.83474 4.75002 8.55541 5.04853 9.08676 5.57988C9.61812 6.11124 9.91663 6.83191 9.91663 7.58335V16.0834H4.24996ZM29.75 28.5925L27.1291 26.34C26.8725 26.1205 26.546 25.9999 26.2083 25.9999C25.8706 25.9999 25.5441 26.1205 25.2875 26.34L21.25 29.7967L17.2125 26.34C16.9559 26.1205 16.6293 25.9999 16.2916 25.9999C15.954 25.9999 15.6274 26.1205 15.3708 26.34L12.75 28.5925V7.58335C12.7482 6.58812 12.4843 5.6109 11.985 4.75002H26.9166C27.6681 4.75002 28.3887 5.04853 28.9201 5.57988C29.4515 6.11124 29.75 6.83191 29.75 7.58335V28.5925ZM26.9166 9.00002C26.9166 9.37574 26.7674 9.73608 26.5017 10.0018C26.236 10.2674 25.8757 10.4167 25.5 10.4167H17C16.6242 10.4167 16.2639 10.2674 15.9982 10.0018C15.7326 9.73608 15.5833 9.37574 15.5833 9.00002C15.5833 8.6243 15.7326 8.26396 15.9982 7.99829C16.2639 7.73261 16.6242 7.58335 17 7.58335H25.5C25.8757 7.58335 26.236 7.73261 26.5017 7.99829C26.7674 8.26396 26.9166 8.6243 26.9166 9.00002ZM26.9166 14.6667C26.9166 15.0424 26.7674 15.4027 26.5017 15.6684C26.236 15.9341 25.8757 16.0834 25.5 16.0834H17C16.6242 16.0834 16.2639 15.9341 15.9982 15.6684C15.7326 15.4027 15.5833 15.0424 15.5833 14.6667C15.5833 14.291 15.7326 13.9306 15.9982 13.665C16.2639 13.3993 16.6242 13.25 17 13.25H25.5C25.8757 13.25 26.236 13.3993 26.5017 13.665C26.7674 13.9306 26.9166 14.291 26.9166 14.6667ZM26.9166 20.3334C26.9166 20.7091 26.7674 21.0694 26.5017 21.3351C26.236 21.6008 25.8757 21.75 25.5 21.75H17C16.6242 21.75 16.2639 21.6008 15.9982 21.3351C15.7326 21.0694 15.5833 20.7091 15.5833 20.3334C15.5833 19.9576 15.7326 19.5973 15.9982 19.3316C16.2639 19.0659 16.6242 18.9167 17 18.9167H25.5C25.8757 18.9167 26.236 19.0659 26.5017 19.3316C26.7674 19.5973 26.9166 19.9576 26.9166 20.3334Z" fill="#BFBFBF"/>
</svg>
